{"title":"Drive Angry 2011 XViD DVDRip - DTRG - SAFCuk009","uid":6392325,"size":1345178624,"categoryP":"video","categoryS":"movies","magnet":"?xt=urn:btih:24753426ff726bc8bf234399a4c6cfd05a47c8e0&amp;dn=Drive+Angry+2011+XViD+DVDRip+-+DTRG+-+SAFCuk009&amp;tr=udp%3A%2F%2Ftracker.openbittorrent.com%3A80&amp;tr=udp%3A%2F%2Fopen.demonii.com%3A1337&amp;tr=udp%3A%2F%2Ftracker.coppersurfer.tk%3A6969&amp;tr=udp%3A%2F%2Fexodus.desync.com%3A6969","seeders":1,"leechers":0,"uploader":"SAFCukO09","files":3,"time":1305393006,"description":"Format : AVI\nFormat/Info : Audio Video Interleave\nFormat profile : OpenDML\nFile size : 1.25 GiB\nDuration : 1h 39mn\nOverall bit rate : 1 804 Kbps\n\n\nVideo\nID : 0\nFormat : MPEG-4 Visual\nFormat profile : Advanced Simple@L5\nFormat settings, BVOP : 1\nFormat settings, QPel : No\nFormat settings, GMC : No warppoints\nFormat settings, Matrix : Default (H.263)\nCodec ID : XVID\nCodec ID/Hint : XviD\nDuration : 1h 39mn\nBit rate : 1 663 Kbps\nWidth : 624 pixels\nHeight : 352 pixels\nDisplay aspect ratio : 16:9\nFrame rate : 23.976 fps\nColor space : YUV\nChroma subsampling : 4:2:0\nBit depth : 8 bits\nScan type : Progressive\nCompression mode : Lossy\nBits/(Pixel*Frame) : 0.316\nStream size : 1.15 GiB (92%)\nWriting library : XviD 63\n\nAudio\nID : 1\nFormat : MPEG Audio\nFormat version : Version 1\nFormat profile : Layer 3\nMode : Joint stereo\nMode extension : MS Stereo\nCodec ID : 55\nCodec ID/Hint : MP3\nDuration : 1h 39mn\nBit rate mode : Variable\nBit rate : 128 Kbps\nChannel(s) : 2 channels\nSampling rate : 48.0 KHz\nCompression mode : Lossy\nStream size : 1.56 MiB (0%)\nAlignment : Aligned on interleaves\nInterleave, duration : 1358 ms (32.55 video frames)\nInterleave, preload duration : 192 ms\n\n\n\n &lt;a href=&quot;\nhttp://www.imdb.com/title/tt1502404/&quot; rel=&quot;nofollow&quot; target=&quot;_NEW&quot;&gt;\nhttp://www.imdb.com/title/tt1502404/&lt;/a&gt;\n\n\n\n\n\n\n\n\nUsers: (6,160 votes) 66 reviews | Critics: 184 reviews Metascore: 44/100 (based on 21 reviews from Metacritic.com)\n\nA vengeful father escapes from hell and chases after the men who killed his daughter and kidnapped his granddaughter.\n\nDirector:\nPatrick Lussier\nWriters:\nTodd Farmer, Patrick Lussier\nStars:\nNicolas Cage, Amber Heard and William Fichtner\n\n\n\n\n\n\n\n\n\n\n\n\n\n\nSource ............Defaced ............... Thanks\n\n\n\nEnjoy !\n\n\n\n\nGreetz to IMAGiNE,Flawl3ss,DiLLoN,BDK,NOiR,TOXiCiNK,THC,Ez,Rx,Boobyblue,TaRiQ786,LKRG,CrEwSaDe","torrent":{"xt":"urn:btih:24753426ff726bc8bf234399a4c6cfd05a47c8e0","amp;dn":"Drive+Angry+2011+XViD+DVDRip+-+DTRG+-+SAFCuk009","amp;tr":["udp%3A%2F%2Ftracker.openbittorrent.com%3A80","udp%3A%2F%2Fopen.demonii.com%3A1337","udp%3A%2F%2Ftracker.coppersurfer.tk%3A6969","udp%3A%2F%2Fexodus.desync.com%3A6969"],"infoHash":"24753426ff726bc8bf234399a4c6cfd05a47c8e0","infoHashBuffer":{"type":"Buffer","data":[36,117,52,38,255,114,107,200,191,35,67,153,164,198,207,208,90,71,200,224]},"announce":[],"urlList":[]}}